<?xml version="1.0" encoding="UTF-8" standalone="no"?>
<!-- Created with Inkscape (http://www.inkscape.org/) -->

<svg
   xmlns:ns1="http://www.iki.fi/pav/software/textext/"
   xmlns:dc="http://purl.org/dc/elements/1.1/"
   xmlns:cc="http://creativecommons.org/ns#"
   xmlns:rdf="http://www.w3.org/1999/02/22-rdf-syntax-ns#"
   xmlns:svg="http://www.w3.org/2000/svg"
   xmlns="http://www.w3.org/2000/svg"
   xmlns:sodipodi="http://sodipodi.sourceforge.net/DTD/sodipodi-0.dtd"
   xmlns:inkscape="http://www.inkscape.org/namespaces/inkscape"
   width="103.20073mm"
   height="60.899902mm"
   viewBox="0 0 103.20073 60.899902"
   version="1.1"
   id="svg8"
   inkscape:version="0.92.5 (2060ec1f9f, 2020-04-08)"
   sodipodi:docname="RealityVsInterface.svg"
   inkscape:export-filename="/home/andres/Dropbox/Code/kajuna0amendez.github.io/assets/math_files/RealityVsInterface.png"
   inkscape:export-xdpi="96"
   inkscape:export-ydpi="96">
  <defs
     id="defs2">
    <marker
       inkscape:isstock="true"
       style="overflow:visible"
       id="marker1308"
       refX="0.0"
       refY="0.0"
       orient="auto"
       inkscape:stockid="Arrow1Mstart">
      <path
         transform="scale(0.4) translate(10,0)"
         style="fill-rule:evenodd;stroke:#000000;stroke-width:1pt;stroke-opacity:1;fill:#000000;fill-opacity:1"
         d="M 0.0,0.0 L 5.0,-5.0 L -12.5,0.0 L 5.0,5.0 L 0.0,0.0 z "
         id="path1306" />
    </marker>
    <marker
       inkscape:stockid="Arrow1Mstart"
       orient="auto"
       refY="0.0"
       refX="0.0"
       id="Arrow1Mstart"
       style="overflow:visible"
       inkscape:isstock="true"
       inkscape:collect="always">
      <path
         id="path852"
         d="M 0.0,0.0 L 5.0,-5.0 L -12.5,0.0 L 5.0,5.0 L 0.0,0.0 z "
         style="fill-rule:evenodd;stroke:#000000;stroke-width:1pt;stroke-opacity:1;fill:#000000;fill-opacity:1"
         transform="scale(0.4) translate(10,0)" />
    </marker>
    <marker
       inkscape:isstock="true"
       style="overflow:visible;"
       id="marker1124"
       refX="0.0"
       refY="0.0"
       orient="auto"
       inkscape:stockid="Arrow1Mend">
      <path
         transform="scale(0.4) rotate(180) translate(10,0)"
         style="fill-rule:evenodd;stroke:#000000;stroke-width:1pt;stroke-opacity:1;fill:#000000;fill-opacity:1"
         d="M 0.0,0.0 L 5.0,-5.0 L -12.5,0.0 L 5.0,5.0 L 0.0,0.0 z "
         id="path1122" />
    </marker>
    <marker
       inkscape:stockid="Arrow1Mend"
       orient="auto"
       refY="0.0"
       refX="0.0"
       id="Arrow1Mend"
       style="overflow:visible;"
       inkscape:isstock="true"
       inkscape:collect="always">
      <path
         id="path855"
         d="M 0.0,0.0 L 5.0,-5.0 L -12.5,0.0 L 5.0,5.0 L 0.0,0.0 z "
         style="fill-rule:evenodd;stroke:#000000;stroke-width:1pt;stroke-opacity:1;fill:#000000;fill-opacity:1"
         transform="scale(0.4) rotate(180) translate(10,0)" />
    </marker>
  </defs>
  <sodipodi:namedview
     id="base"
     pagecolor="#ffffff"
     bordercolor="#666666"
     borderopacity="1.0"
     inkscape:pageopacity="0.0"
     inkscape:pageshadow="2"
     inkscape:zoom="2.5375286"
     inkscape:cx="224.65126"
     inkscape:cy="130.24598"
     inkscape:document-units="mm"
     inkscape:current-layer="layer1"
     showgrid="false"
     inkscape:window-width="2560"
     inkscape:window-height="1016"
     inkscape:window-x="2560"
     inkscape:window-y="27"
     inkscape:window-maximized="1"
     fit-margin-top="0"
     fit-margin-left="0"
     fit-margin-right="0"
     fit-margin-bottom="0">
    <inkscape:grid
       originy="-209.02082"
       originx="-42.320106"
       id="grid815"
       type="xygrid" />
  </sodipodi:namedview>
  <metadata
     id="metadata5">
    <rdf:RDF>
      <cc:Work
         rdf:about="">
        <dc:format>image/svg+xml</dc:format>
        <dc:type
           rdf:resource="http://purl.org/dc/dcmitype/StillImage" />
        <dc:title />
      </cc:Work>
    </rdf:RDF>
  </metadata>
  <g
     inkscape:label="Layer 1"
     inkscape:groupmode="layer"
     id="layer1"
     transform="translate(-42.320103,-27.079266)">
    <path
       style="fill:none;stroke:#000000;stroke-width:0.265;stroke-linecap:butt;stroke-linejoin:miter;stroke-opacity:1;stroke-miterlimit:4;stroke-dasharray:none;marker-end:url(#marker1124);marker-start:url(#marker1308)"
       d="M 50.270833,27.125001 V 87.979167"
       id="path817"
       inkscape:connector-curvature="0" />
    <path
       style="fill:none;stroke:#000000;stroke-width:0.265;stroke-linecap:butt;stroke-linejoin:miter;stroke-opacity:1;stroke-miterlimit:4;stroke-dasharray:none;marker-end:url(#Arrow1Mend);marker-start:url(#Arrow1Mstart)"
       d="M 42.333333,82.6875 H 145.52083"
       id="path819"
       inkscape:connector-curvature="0" />
    <path
       d="M 42.333332,27.125 V 87.979165 M 47.624999,27.125 V 87.979165 M 52.916665,27.125 V 87.979165 M 58.208332,27.125 V 87.979165 M 63.499998,27.125 V 87.979165 M 68.791665,27.125 V 87.979165 M 74.083331,27.125 V 87.979165 M 79.374998,27.125 V 87.979165 M 84.666664,27.125 V 87.979165 M 89.958331,27.125 V 87.979165 M 95.249997,27.125 V 87.979165 M 100.54166,27.125 V 87.979165 M 105.83333,27.125 V 87.979165 M 111.125,27.125 V 87.979165 M 116.41666,27.125 V 87.979165 M 121.70833,27.125 V 87.979165 M 127,27.125 V 87.979165 M 132.29166,27.125 V 87.979165 M 137.58333,27.125 V 87.979165 M 142.875,27.125 V 87.979165 M 42.333332,27.125 H 145.52083 M 42.333332,32.416667 H 145.52083 M 42.333332,37.708333 H 145.52083 M 42.333332,43 H 145.52083 M 42.333332,48.291667 H 145.52083 M 42.333332,53.583333 H 145.52083 M 42.333332,58.875 H 145.52083 M 42.333332,64.166666 H 145.52083 M 42.333332,69.458333 H 145.52083 M 42.333332,74.749999 H 145.52083 M 42.333332,80.041666 H 145.52083 M 42.333332,85.333332 H 145.52083"
       style="opacity:0.5010002;fill:none;stroke:#000000;stroke-width:0.0264583px"
       id="path823"
       inkscape:connector-curvature="0" />
    <path
       style="fill:none;stroke:#0000ff;stroke-width:0.26458332px;stroke-linecap:butt;stroke-linejoin:miter;stroke-opacity:1"
       d="m 53.105652,77.017854 3.023809,-9.827379 0.944941,5.291667 2.333029,-8.354591 c 0,0 0.879766,8.354591 0.69078,9.299529 -0.188989,0.944941 1.928975,-11.645543 1.928975,-11.645543 0,0 0.215049,15.060368 1.159987,12.036559 0.944941,-3.023809 1.616174,-14.982177 1.616174,-14.982177 l 1.531471,13.646223 1.837745,-16.09654 c 0,0 0.860205,12.12779 0.860205,13.639693 0,1.511906 1.427202,-15.835869 1.427202,-15.835869 l 0.540888,16.793848 1.661796,-18.344848 0.26067,17.354285 1.537981,-17.921284 c 0,0 0.377976,10.394344 0.188989,11.717261 -0.188989,1.322916 2.280895,-17.784411 2.280895,-14.949591 0,2.834823 1.603119,16.331169 1.414129,17.654086 -0.188989,1.322917 1.427203,-19.524366 1.427203,-19.524366 l 1.264237,26.099853 1.17306,-28.556767 c 0,0 1.655234,17.673667 1.766012,19.961073 0.104233,2.152273 1.82476,-19.439714 1.82476,-19.439714 0,0 1.335938,12.590518 1.257729,15.998814 -0.0673,2.933114 3.147643,-18.664179 3.147643,-18.664179 0,0 0.215046,20.847316 0.215046,21.981246 0,1.133927 2.13102,-26.373545 2.13102,-26.373545 0,0 0.195499,22.580745 0.195499,23.903661 0,1.322917 1.95503,-22.567759 1.941998,-19.263729 0.195495,2.83482 -0.273709,22.743725 -0.273709,22.743725 L 96.00595,48.285221 c 0,0 0.579979,17.986388 0.768969,18.931329 0.18899,0.944941 2.091946,-13.072782 2.091946,-13.072782 0,0 1.674795,11.345812 1.485805,12.290753 -0.18898,0.944941 1.94858,-14.030776 1.94858,-14.030776 0,0 2.02017,11.762919 1.6422,13.274824 -0.37798,1.511906 1.5706,-15.340622 1.5706,-15.340622 l 1.07523,19.120383 c 0,0 2.02024,-17.582383 2.39822,-18.716313 0.37797,-1.133928 1.00357,16.07048 0.62559,17.960362 -0.37798,1.889881 3.17373,-17.367375 3.17373,-17.367375 0,0 -0.0328,10.875648 0.4898,7.027899 1.21558,-8.949141 3.84578,-13.290312 2.68489,10.205258 -0.12226,2.474347 0.74515,3.985611 1.02209,3.099401 0.94494,-3.023811 2.52861,-24.431717 2.52861,-24.431717 l 0.82758,12.427691 1.3034,-18.983512 c 0,0 1.74645,18.325318 1.17949,20.404186 -0.56697,2.078869 2.43734,-21.837899 2.43734,-21.837899 0,0 2.18309,14.265339 1.80511,15.966231 -0.37797,1.700892 1.35556,-16.963339 1.35556,-16.963339 0,0 0.6712,11.984476 0.29322,12.929417 -0.37798,0.944941 2.17666,-15.138629 2.17666,-15.138629 0,0 0.15636,13.880884 -0.0326,14.636836 -0.18898,0.755954 1.98119,-16.305193 1.98119,-16.305193 0,0 1.44667,12.316895 1.25768,13.072847 -0.18899,0.755954 1.17961,-15.106075 1.17961,-15.106075"
       id="path825"
       inkscape:connector-curvature="0"
       sodipodi:nodetypes="ccccccscccsccccccsscccscscscscccscccccccscssscccccccscccsc"
       inkscape:export-xdpi="96"
       inkscape:export-ydpi="96" />
    <path
       style="fill:none;stroke:#ff0000;stroke-width:0.26458332px;stroke-linecap:butt;stroke-linejoin:miter;stroke-opacity:1"
       d="m 52.029791,70.425378 c 3.256643,-4.23519 18.09033,-19.522625 30.579062,-26.180801 3.594014,-1.916094 2.631338,4.64005 8.521481,-7.080729 2.766328,-5.504709 6.928778,18.406696 9.071326,16.265827 4.67869,-4.675033 8.05198,-6.153401 8.84631,-5.078026 2.28866,3.098408 7.0719,3.795029 8.71824,0.0104 1.80382,-4.146646 5.01599,-13.90859 6.90671,-10.514067 2.00365,3.597282 8.3808,-5.456884 11.91831,-8.712779"
       id="path829"
       inkscape:connector-curvature="0"
       sodipodi:nodetypes="cssssssc" />
    <text
       xml:space="preserve"
       style="font-style:normal;font-weight:normal;font-size:2.82222223px;line-height:1.25;font-family:sans-serif;letter-spacing:0px;word-spacing:0px;fill:#000000;fill-opacity:1;stroke:none;stroke-width:0.26458332"
       x="66.301773"
       y="40.537178"
       id="text833"><tspan
         sodipodi:role="line"
         id="tspan831"
         x="66.301773"
         y="43.034184"
         style="stroke-width:0.26458332" /></text>
    <g
       id="g879"
       ns1:jacobian_sqrt="0.529167"
       ns1:alignment="middle center"
       ns1:scale="1.5"
       ns1:preamble="/home/andres/Dropbox/Classes/InkscapeTex/textexpreamble.tex"
       ns1:text="$g \\in S_g$ $f\\in D_f$"
       ns1:pdfconverter="pdf2svg"
       ns1:texconverter="pdflatex"
       ns1:version="0.11.1"
       transform="matrix(0.529167, 0.0, 0.0, 0.529167, -43.519884, -39.774379)">
      <g
         id="surface1">
        <g
           id="g848"
           style="fill:#ff0000;fill-opacity:1"
           transform="translate(67.782444,17.733779)">
          <path
             id="path846"
             transform="translate(148.712,134.765)"
             d="M 4.6875,-3.765625 C 4.703125,-3.8125 4.71875,-3.875 4.71875,-3.9375 c 0,-0.171875 -0.109375,-0.265625 -0.28125,-0.265625 -0.09375,0 -0.375,0.0625 -0.40625,0.421875 -0.1875,-0.359375 -0.53125,-0.625 -0.9375,-0.625 -1.125,0 -2.359375,1.390625 -2.359375,2.828125 0,0.984375 0.59375,1.578125 1.3125,1.578125 0.59375,0 1.0625,-0.46875 1.15625,-0.578125 L 3.21875,-0.5625 C 3.015625,0.3125 2.890625,0.734375 2.890625,0.75 2.84375,0.84375 2.515625,1.828125 1.453125,1.828125 1.265625,1.828125 0.9375,1.8125 0.65625,1.71875 0.953125,1.640625 1.0625,1.375 1.0625,1.203125 c 0,-0.15625 -0.109375,-0.34375 -0.375,-0.34375 -0.21875,0 -0.53125,0.171875 -0.53125,0.578125 0,0.40625 0.359375,0.609375 1.3125,0.609375 1.25,0 1.96875,-0.78125 2.125,-1.375 z M 3.40625,-1.28125 C 3.34375,-1.015625 3.109375,-0.765625 2.890625,-0.578125 2.6875,-0.40625 2.375,-0.21875 2.078125,-0.21875 c -0.5,0 -0.640625,-0.515625 -0.640625,-0.921875 0,-0.46875 0.28125,-1.65625 0.5625,-2.15625 C 2.265625,-3.78125 2.6875,-4.1875 3.109375,-4.1875 c 0.65625,0 0.796875,0.8125 0.796875,0.859375 0,0.046875 -0.015625,0.109375 -0.03125,0.140625 z m 0,0"
             style="stroke:none;stroke-width:0;fill:#ff0000"
             inkscape:connector-curvature="0" />
        </g>
        <g
           id="g852"
           style="fill:#ff0000;fill-opacity:1"
           transform="translate(67.782444,17.733779)">
          <path
             id="path850"
             transform="translate(156.589,134.765)"
             d="m 5.46875,-2.296875 c 0.15625,0 0.34375,0 0.34375,-0.203125 0,-0.1875 -0.1875,-0.1875 -0.34375,-0.1875 H 1.234375 C 1.359375,-4.03125 2.5,-4.984375 3.90625,-4.984375 h 1.5625 c 0.15625,0 0.34375,0 0.34375,-0.203125 0,-0.203125 -0.1875,-0.203125 -0.34375,-0.203125 H 3.890625 c -1.703125,0 -3.0625,1.296875 -3.0625,2.890625 0,1.609375 1.359375,2.90625 3.0625,2.90625 H 5.46875 c 0.15625,0 0.34375,0 0.34375,-0.203125 C 5.8125,0 5.625,0 5.46875,0 H 3.90625 C 2.5,0 1.359375,-0.953125 1.234375,-2.296875 Z m 0,0"
             style="stroke:none;stroke-width:0;fill:#ff0000"
             inkscape:connector-curvature="0" />
        </g>
        <g
           id="g856"
           style="fill:#ff0000;fill-opacity:1"
           transform="translate(67.782444,17.733779)">
          <path
             id="path854"
             transform="translate(165.998,134.765)"
             d="m 6.4375,-6.921875 c 0,-0.03125 -0.03125,-0.109375 -0.125,-0.109375 -0.046875,0 -0.046875,0.015625 -0.171875,0.15625 L 5.65625,-6.3125 c -0.25,-0.46875 -0.765625,-0.71875 -1.421875,-0.71875 -1.265625,0 -2.453125,1.15625 -2.453125,2.359375 0,0.796875 0.515625,1.265625 1.03125,1.40625 l 1.0625,0.28125 c 0.375,0.09375 0.921875,0.25 0.921875,1.0625 0,0.890625 -0.8125,1.828125 -1.796875,1.828125 -0.640625,0 -1.75,-0.21875 -1.75,-1.453125 0,-0.234375 0.0625,-0.484375 0.0625,-0.53125 0.015625,-0.046875 0.015625,-0.0625 0.015625,-0.078125 0,-0.09375 -0.0625,-0.109375 -0.109375,-0.109375 -0.046875,0 -0.078125,0.015625 -0.109375,0.046875 -0.03125,0.03125 -0.59375,2.3125 -0.59375,2.34375 0,0.046875 0.046875,0.09375 0.109375,0.09375 0.046875,0 0.0625,-0.015625 0.1875,-0.15625 L 1.296875,-0.5 c 0.421875,0.578125 1.109375,0.71875 1.6875,0.71875 1.359375,0 2.53125,-1.328125 2.53125,-2.5625 0,-0.6875 -0.34375,-1.03125 -0.484375,-1.171875 C 4.796875,-3.734375 4.640625,-3.78125 3.765625,-4 3.53125,-4.0625 3.1875,-4.171875 3.09375,-4.1875 2.828125,-4.28125 2.484375,-4.5625 2.484375,-5.09375 c 0,-0.8125 0.796875,-1.65625 1.75,-1.65625 0.8125,0 1.421875,0.4375 1.421875,1.546875 0,0.3125 -0.03125,0.5 -0.03125,0.5625 0,0 0,0.09375 0.109375,0.09375 0.109375,0 0.125,-0.03125 0.15625,-0.203125 z m 0,0"
             style="stroke:none;stroke-width:0;fill:#ff0000"
             inkscape:connector-curvature="0" />
        </g>
        <g
           id="g860"
           style="fill:#ff0000;fill-opacity:1"
           transform="translate(67.782444,17.733779)">
          <path
             id="path858"
             transform="translate(172.107,136.259)"
             d="m 3.703125,-2.578125 c 0.03125,-0.09375 0.03125,-0.125 0.03125,-0.140625 0,-0.15625 -0.125,-0.21875 -0.234375,-0.21875 -0.15625,0 -0.296875,0.125 -0.328125,0.265625 -0.109375,-0.1875 -0.34375,-0.40625 -0.71875,-0.40625 -0.859375,0 -1.78125,0.9375 -1.78125,1.9375 0,0.71875 0.484375,1.140625 1.0625,1.140625 0.328125,0 0.625,-0.15625 0.875,-0.375 L 2.453125,0.25 C 2.375,0.546875 2.328125,0.734375 2.0625,0.96875 c -0.3125,0.25 -0.609375,0.25 -0.78125,0.25 -0.3125,0 -0.40625,-0.015625 -0.53125,-0.046875 0.171875,-0.078125 0.21875,-0.25 0.21875,-0.34375 0,-0.171875 -0.125,-0.25 -0.265625,-0.25 C 0.5,0.578125 0.296875,0.734375 0.296875,1 c 0,0.421875 0.609375,0.421875 1,0.421875 1.09375,0 1.546875,-0.5625 1.65625,-0.953125 z M 2.75,-0.921875 c -0.03125,0.09375 -0.03125,0.109375 -0.15625,0.25 C 2.359375,-0.375 2.015625,-0.1875 1.75,-0.1875 c -0.34375,0 -0.515625,-0.3125 -0.515625,-0.671875 0,-0.296875 0.1875,-1.078125 0.375,-1.390625 0.28125,-0.484375 0.609375,-0.625 0.84375,-0.625 0.5,0 0.625,0.515625 0.625,0.59375 0,0.015625 0,0.015625 -0.015625,0.09375 z m 0,0"
             style="stroke:none;stroke-width:0;fill:#ff0000"
             inkscape:connector-curvature="0" />
        </g>
        <g
           id="g864"
           style="fill:#0000ff;fill-opacity:1"
           transform="translate(75.27004,80.590174)">
          <path
             id="path862"
             transform="translate(180.063,134.765)"
             d="m 3.65625,-3.984375 h 0.859375 c 0.203125,0 0.296875,0 0.296875,-0.203125 0,-0.109375 -0.09375,-0.109375 -0.265625,-0.109375 H 3.71875 L 3.921875,-5.4375 c 0.046875,-0.203125 0.1875,-0.90625 0.25,-1.03125 0.078125,-0.1875 0.25,-0.34375 0.46875,-0.34375 0.03125,0 0.296875,0 0.484375,0.1875 -0.4375,0.03125 -0.546875,0.390625 -0.546875,0.53125 0,0.234375 0.1875,0.359375 0.375,0.359375 C 5.21875,-5.734375 5.5,-5.96875 5.5,-6.34375 c 0,-0.453125 -0.453125,-0.6875 -0.859375,-0.6875 -0.34375,0 -0.96875,0.1875 -1.265625,1.171875 -0.0625,0.203125 -0.09375,0.3125 -0.328125,1.5625 h -0.6875 c -0.203125,0 -0.3125,0 -0.3125,0.1875 0,0.125 0.09375,0.125 0.28125,0.125 h 0.65625 L 2.25,-0.046875 c -0.1875,0.96875 -0.359375,1.875 -0.875,1.875 -0.046875,0 -0.28125,0 -0.484375,-0.1875 C 1.359375,1.609375 1.453125,1.25 1.453125,1.109375 1.453125,0.875 1.265625,0.75 1.078125,0.75 0.8125,0.75 0.53125,0.984375 0.53125,1.359375 c 0,0.4375 0.4375,0.6875 0.84375,0.6875 0.546875,0 0.953125,-0.59375 1.125,-0.96875 0.328125,-0.625 0.546875,-1.828125 0.5625,-1.90625 z m 0,0"
             style="stroke:none;stroke-width:0;fill:#0000ff"
             inkscape:connector-curvature="0" />
        </g>
        <g
           id="g868"
           style="fill:#0000ff;fill-opacity:1"
           transform="translate(75.27004,80.590174)">
          <path
             id="path866"
             transform="translate(188.78,134.765)"
             d="m 5.46875,-2.296875 c 0.15625,0 0.34375,0 0.34375,-0.203125 0,-0.1875 -0.1875,-0.1875 -0.34375,-0.1875 H 1.234375 C 1.359375,-4.03125 2.5,-4.984375 3.90625,-4.984375 h 1.5625 c 0.15625,0 0.34375,0 0.34375,-0.203125 0,-0.203125 -0.1875,-0.203125 -0.34375,-0.203125 H 3.890625 c -1.703125,0 -3.0625,1.296875 -3.0625,2.890625 0,1.609375 1.359375,2.90625 3.0625,2.90625 H 5.46875 c 0.15625,0 0.34375,0 0.34375,-0.203125 C 5.8125,0 5.625,0 5.46875,0 H 3.90625 C 2.5,0 1.359375,-0.953125 1.234375,-2.296875 Z m 0,0"
             style="stroke:none;stroke-width:0;fill:#0000ff"
             inkscape:connector-curvature="0" />
        </g>
        <g
           id="g872"
           style="fill:#0000ff;fill-opacity:1"
           transform="translate(75.27004,80.590174)">
          <path
             id="path870"
             transform="translate(198.189,134.765)"
             d="m 1.578125,-0.78125 c -0.09375,0.390625 -0.109375,0.46875 -0.90625,0.46875 -0.15625,0 -0.265625,0 -0.265625,0.1875 C 0.40625,0 0.484375,0 0.671875,0 h 3.3125 c 2.0625,0 4.03125,-2.109375 4.03125,-4.28125 0,-1.40625 -0.84375,-2.53125 -2.34375,-2.53125 h -3.34375 c -0.1875,0 -0.296875,0 -0.296875,0.1875 0,0.125 0.078125,0.125 0.28125,0.125 0.125,0 0.3125,0.015625 0.421875,0.015625 0.171875,0.03125 0.21875,0.046875 0.21875,0.171875 0,0.03125 0,0.0625 -0.03125,0.1875 z M 3.734375,-6.125 C 3.828125,-6.46875 3.84375,-6.5 4.28125,-6.5 h 1.0625 c 0.96875,0 1.796875,0.53125 1.796875,1.84375 0,0.484375 -0.1875,2.125 -1.046875,3.21875 -0.28125,0.375 -1.0625,1.125 -2.296875,1.125 h -1.125 c -0.140625,0 -0.15625,0 -0.21875,0 -0.09375,-0.015625 -0.125,-0.03125 -0.125,-0.109375 0,-0.03125 0,-0.046875 0.046875,-0.21875 z m 0,0"
             style="stroke:none;stroke-width:0;fill:#0000ff"
             inkscape:connector-curvature="0" />
        </g>
        <g
           id="g876"
           style="fill:#0000ff;fill-opacity:1"
           transform="translate(75.27004,80.590174)">
          <path
             id="path874"
             transform="translate(206.438,136.259)"
             d="M 2.84375,-2.75 H 3.515625 C 3.65625,-2.75 3.75,-2.75 3.75,-2.90625 3.75,-3 3.65625,-3 3.53125,-3 H 2.890625 c 0.15625,-0.890625 0.203125,-1.203125 0.265625,-1.40625 0.03125,-0.15625 0.1875,-0.296875 0.359375,-0.296875 0,0 0.1875,0 0.328125,0.078125 -0.296875,0.09375 -0.3125,0.34375 -0.3125,0.375 0,0.15625 0.125,0.265625 0.28125,0.265625 0.1875,0 0.390625,-0.15625 0.390625,-0.421875 0,-0.328125 -0.328125,-0.5 -0.6875,-0.5 -0.3125,0 -0.65625,0.171875 -0.84375,0.515625 C 2.53125,-4.125 2.484375,-3.8125 2.328125,-3 H 1.78125 c -0.140625,0 -0.234375,0 -0.234375,0.15625 0,0.09375 0.09375,0.09375 0.21875,0.09375 H 2.28125 c 0,0.046875 -0.4375,2.546875 -0.609375,3.296875 -0.03125,0.15625 -0.15625,0.671875 -0.484375,0.671875 -0.015625,0 -0.171875,0 -0.3125,-0.078125 0.28125,-0.09375 0.3125,-0.34375 0.3125,-0.375 C 1.1875,0.609375 1.0625,0.5 0.90625,0.5 c -0.1875,0 -0.390625,0.15625 -0.390625,0.421875 0,0.3125 0.328125,0.5 0.671875,0.5 0.4375,0 0.75,-0.453125 0.828125,-0.609375 0.25,-0.46875 0.421875,-1.328125 0.4375,-1.40625 z m 0,0"
             style="stroke:none;stroke-width:0;fill:#0000ff"
             inkscape:connector-curvature="0" />
        </g>
      </g>
    </g>
  </g>
</svg>
